g cube_0
v 1 -1 -1
v 1 -1 1
v 1 1 -1
v 1 1 1
v -1 -1 -1
v -1 -1 1
v -1 1 -1
v -1 1 1
vn 0.5773503 -0.5773503 -0.5773503
vn 0.5773503 -0.5773503 0.5773503
vn 0.5773503 0.5773503 -0.5773503
vn 0.5773503 0.5773503 0.5773503
vn -0.5773503 -0.5773503 -0.5773503
vn -0.5773503 -0.5773503 0.5773503
vn -0.5773503 0.5773503 -0.5773503
vn -0.5773503 0.5773503 0.5773503
g cube_0_0
f 3/3/3 2/2/2 1/1/1
f 4/4/4 2/2/2 3/3/3
f 8/8/8 2/2/2 4/4/4
f 6/6/6 2/2/2 8/8/8
f 8/8/8 5/5/5 6/6/6
f 7/7/7 5/5/5 8/8/8
f 3/3/3 5/5/5 7/7/7
f 1/1/1 5/5/5 3/3/3
f 6/6/6 5/5/5 1/1/1
f 1/1/1 2/2/2 6/6/6
f 3/3/3 7/7/7 8/8/8
f 8/8/8 4/4/4 3/3/3
