g Plane
v 1.176943 0.9873423 0
v 1.194684 0.9726799 0
v 1.194684 0.9726799 0.0233648
v 1.176943 0.9873423 0.0233648
v 1.154587 0.9967562 0
v 1.154587 0.9967562 0.0233648
v 1.129805 1 0
v 1.129805 1 0.0233648
v -1.129805 1 0.0233648
v -1.129805 1 0
v -1.154587 0.9967562 0
v -1.154587 0.9967562 0.0233648
v -1.176943 0.9873423 0
v -1.176943 0.9873423 0.0233648
v -1.194684 0.9726799 0
v -1.194684 0.9726799 0.0233648
v 1.194684 0.9726799 0
v 1.206075 0.954204 0.0233648
v 1.194684 0.9726799 0.0233648
v 1.206075 0.954204 0
v 1.21 0.9337234 0.0233648
v 1.21 0.9337234 0
v 1.21 -0.9337234 0
v 1.21 -0.9337234 0.0233648
v 1.206075 -0.954204 0.0233648
v 1.206075 -0.954204 0
v 1.194684 -0.9726799 0.0233648
v 1.194684 -0.9726799 0
v 1.176943 -0.9873423 0.0233648
v 1.194684 -0.9726799 0.0233648
v 1.194684 -0.9726799 0
v 1.176943 -0.9873423 0
v 1.154587 -0.9967562 0.0233648
v 1.154587 -0.9967562 0
v 1.129805 -1 0.0233648
v 1.129805 -1 0
v -1.129805 -1 0
v -1.129805 -1 0.0233648
v -1.154587 -0.9967562 0.0233648
v -1.154587 -0.9967562 0
v -1.176943 -0.9873423 0.0233648
v -1.176943 -0.9873423 0
v -1.194684 -0.9726799 0.0233648
v -1.194684 -0.9726799 0
v -1.194684 -0.9726799 0
v -1.206075 -0.954204 0.0233648
v -1.194684 -0.9726799 0.0233648
v -1.206075 -0.954204 0
v -1.21 -0.9337234 0.0233648
v -1.21 -0.9337234 0
v -1.21 0.9337234 0
v -1.21 0.9337234 0.0233648
v -1.206075 0.954204 0.0233648
v -1.206075 0.954204 0
v -1.194684 0.9726799 0.0233648
v -1.194684 0.9726799 0
v 1.206075 -0.954204 0
v 1.21 -0.9337234 0
v 1.21 0.9337234 0
v 1.206075 0.954204 0
v 1.194684 -0.9726799 0
v 1.194684 0.9726799 0
v 1.176943 -0.9873423 0
v 1.176943 0.9873423 0
v 1.154587 -0.9967562 0
v 1.154587 0.9967562 0
v 1.129805 -1 0
v 1.129805 1 0
v -1.129805 -1 0
v -1.129805 1 0
v -1.154587 -0.9967562 0
v -1.154587 0.9967562 0
v -1.176943 -0.9873423 0
v -1.176943 0.9873423 0
v -1.194684 -0.9726799 0
v -1.194684 0.9726799 0
v -1.206075 -0.954204 0
v -1.206075 0.954204 0
v -1.21 -0.9337234 0
v -1.21 0.9337234 0
v 1.206075 0.954204 0.0233648
v 1.21 0.9337234 0.0233648
v 1.21 -0.9337234 0.0233648
v 1.206075 -0.954204 0.0233648
v 1.194684 0.9726799 0.0233648
v 1.194684 -0.9726799 0.0233648
v 1.176943 0.9873423 0.0233648
v 1.176943 -0.9873423 0.0233648
v 1.154587 0.9967562 0.0233648
v 1.154587 -0.9967562 0.0233648
v 1.129805 1 0.0233648
v 1.129805 -1 0.0233648
v -1.129805 1 0.0233648
v -1.129805 -1 0.0233648
v -1.154587 0.9967562 0.0233648
v -1.154587 -0.9967562 0.0233648
v -1.176943 0.9873423 0.0233648
v -1.176943 -0.9873423 0.0233648
v -1.194684 0.9726799 0.0233648
v -1.194684 -0.9726799 0.0233648
v -1.206075 0.954204 0.0233648
v -1.206075 -0.954204 0.0233648
v -1.21 0.9337234 0.0233648
v -1.21 -0.9337234 0.0233648
vt 0.9863399 0.4951726
vt 0.9936712 0.4951726
vt 0.9936712 0.5048274
vt 0.9863399 0.5048274
vt 0.977102 0.4951726
vt 0.977102 0.5048274
vt 0.9668617 0.4951726
vt 0.9668617 0.5048274
vt 0.03313828 0.5048274
vt 0.03313828 0.4951726
vt 0.02289799 0.4951726
vt 0.02289799 0.5048274
vt 0.01366007 0.4951726
vt 0.01366007 0.5048274
vt 0.006328851 0.4951726
vt 0.006328851 0.5048274
vt 0.9019338 0.4951726
vt 0.8942991 0.5048274
vt 0.9019338 0.5048274
vt 0.8942991 0.4951726
vt 0.8858361 0.5048274
vt 0.8858361 0.4951726
vt 0.1141639 0.4951726
vt 0.1141639 0.5048274
vt 0.1057009 0.5048274
vt 0.1057009 0.4951726
vt 0.09806621 0.5048274
vt 0.09806621 0.4951726
vt 0.9863399 0.5048274
vt 0.9936712 0.5048274
vt 0.9936712 0.4951726
vt 0.9863399 0.4951726
vt 0.977102 0.5048274
vt 0.977102 0.4951726
vt 0.9668617 0.5048274
vt 0.9668617 0.4951726
vt 0.03313828 0.4951726
vt 0.03313828 0.5048274
vt 0.02289799 0.5048274
vt 0.02289799 0.4951726
vt 0.01366007 0.5048274
vt 0.01366007 0.4951726
vt 0.006328851 0.5048274
vt 0.006328851 0.4951726
vt 0.09806621 0.4951726
vt 0.1057009 0.5048274
vt 0.09806621 0.5048274
vt 0.1057009 0.4951726
vt 0.1141639 0.5048274
vt 0.1141639 0.4951726
vt 0.8858361 0.4951726
vt 0.8858361 0.5048274
vt 0.8942991 0.5048274
vt 0.8942991 0.4951726
vt 0.9019338 0.5048274
vt 0.9019338 0.4951726
vt 0.8942991 0.9983782
vt 0.8858361 1
vt 0.1141639 1
vt 0.1057008 0.998378
vt 0.9019338 0.9936712
vt 0.09806621 0.9936712
vt 0.9079926 0.9863399
vt 0.09200728 0.9863399
vt 0.9118826 0.977102
vt 0.08811724 0.977102
vt 0.9132231 0.9668617
vt 0.08677685 0.9668617
vt 0.9132231 0.0331383
vt 0.08677688 0.03313828
vt 0.9118828 0.02289802
vt 0.08811733 0.02289796
vt 0.9079927 0.0136601
vt 0.09200737 0.01366001
vt 0.9019338 0.006328881
vt 0.09806624 0.006328821
vt 0.8942991 0.001621932
vt 0.1057009 0.001621842
vt 0.8858361 2.980232E-08
vt 0.1141639 0
vt 0.1057008 0.998378
vt 0.1141639 1
vt 0.8858361 1
vt 0.8942991 0.9983782
vt 0.09806621 0.9936712
vt 0.9019338 0.9936712
vt 0.09200728 0.9863399
vt 0.9079926 0.9863399
vt 0.08811724 0.977102
vt 0.9118826 0.977102
vt 0.08677685 0.9668617
vt 0.9132231 0.9668617
vt 0.08677688 0.03313828
vt 0.9132231 0.0331383
vt 0.08811733 0.02289796
vt 0.9118828 0.02289802
vt 0.09200737 0.01366001
vt 0.9079927 0.0136601
vt 0.09806624 0.006328821
vt 0.9019338 0.006328881
vt 0.1057009 0.001621842
vt 0.8942991 0.001621932
vt 0.1141639 0
vt 0.8858361 2.980232E-08
vn 0.5180838 0.8553298 0
vn 0.7542344 0.6566054 0
vn 0.7542344 0.6566054 0
vn 0.5180838 0.8553298 0
vn 0.2612889 0.9652606 0
vn 0.2612889 0.9652606 0
vn 0.0650322 0.9978831 0
vn 0.0650322 0.9978831 0
vn -0.0650322 0.9978831 0
vn -0.0650322 0.9978831 0
vn -0.2612889 0.9652606 0
vn -0.2612889 0.9652606 0
vn -0.5180838 0.8553298 0
vn -0.5180838 0.8553298 0
vn -0.7542344 0.6566054 0
vn -0.7542344 0.6566054 0
vn 0.7542344 0.6566054 0
vn 0.9319964 0.3624676 0
vn 0.7542344 0.6566054 0
vn 0.9319964 0.3624676 0
vn 0.9955218 0.09453186 0
vn 0.9955218 0.09453186 0
vn 0.9955218 -0.09453186 0
vn 0.9955218 -0.09453186 0
vn 0.9319964 -0.3624676 0
vn 0.9319964 -0.3624676 0
vn 0.7542344 -0.6566054 0
vn 0.7542344 -0.6566054 0
vn 0.5180838 -0.8553298 0
vn 0.7542344 -0.6566054 0
vn 0.7542344 -0.6566054 0
vn 0.5180838 -0.8553298 0
vn 0.2612889 -0.9652606 0
vn 0.2612889 -0.9652606 0
vn 0.0650322 -0.9978831 0
vn 0.0650322 -0.9978831 0
vn -0.0650322 -0.9978831 0
vn -0.0650322 -0.9978831 0
vn -0.2612889 -0.9652606 0
vn -0.2612889 -0.9652606 0
vn -0.5180838 -0.8553298 0
vn -0.5180838 -0.8553298 0
vn -0.7542344 -0.6566054 0
vn -0.7542344 -0.6566054 0
vn -0.7542344 -0.6566054 0
vn -0.9319964 -0.3624676 0
vn -0.7542344 -0.6566054 0
vn -0.9319964 -0.3624676 0
vn -0.9955218 -0.09453186 0
vn -0.9955218 -0.09453186 0
vn -0.9955218 0.09453186 0
vn -0.9955218 0.09453186 0
vn -0.9319964 0.3624676 0
vn -0.9319964 0.3624676 0
vn -0.7542344 0.6566054 0
vn -0.7542344 0.6566054 0
vn 0 0 -1
vn 0 0 -1
vn 0 0 -1
vn 0 0 -1
vn 0 0 -1
vn 0 0 -1
vn 0 0 -1
vn 0 0 -1
vn 0 0 -1
vn 0 0 -1
vn 0 0 -1
vn 0 0 -1
vn 0 0 -1
vn 0 0 -1
vn 0 0 -1
vn 0 0 -1
vn 0 0 -1
vn 0 0 -1
vn 0 0 -1
vn 0 0 -1
vn 0 0 -1
vn 0 0 -1
vn 0 0 -1
vn 0 0 -1
vn 0 0 1
vn 0 0 1
vn 0 0 1
vn 0 0 1
vn 0 0 1
vn 0 0 1
vn 0 0 1
vn 0 0 1
vn 0 0 1
vn 0 0 1
vn 0 0 1
vn 0 0 1
vn 0 0 1
vn 0 0 1
vn 0 0 1
vn 0 0 1
vn 0 0 1
vn 0 0 1
vn 0 0 1
vn 0 0 1
vn 0 0 1
vn 0 0 1
vn 0 0 1
vn 0 0 1
g Plane_0
f 3/3/3 2/2/2 1/1/1
f 4/4/4 3/3/3 1/1/1
f 4/4/4 1/1/1 5/5/5
f 6/6/6 4/4/4 5/5/5
f 6/6/6 5/5/5 7/7/7
f 8/8/8 6/6/6 7/7/7
f 9/9/9 8/8/8 7/7/7
f 10/10/10 9/9/9 7/7/7
f 10/10/10 11/11/11 9/9/9
f 11/11/11 12/12/12 9/9/9
f 11/11/11 13/13/13 12/12/12
f 13/13/13 14/14/14 12/12/12
f 13/13/13 15/15/15 14/14/14
f 15/15/15 16/16/16 14/14/14
f 19/19/19 18/18/18 17/17/17
f 18/18/18 20/20/20 17/17/17
f 18/18/18 21/21/21 20/20/20
f 21/21/21 22/22/22 20/20/20
f 22/22/22 21/21/21 23/23/23
f 21/21/21 24/24/24 23/23/23
f 23/23/23 24/24/24 25/25/25
f 26/26/26 23/23/23 25/25/25
f 26/26/26 25/25/25 27/27/27
f 28/28/28 26/26/26 27/27/27
f 31/31/31 30/30/30 29/29/29
f 32/32/32 31/31/31 29/29/29
f 32/32/32 29/29/29 33/33/33
f 34/34/34 32/32/32 33/33/33
f 34/34/34 33/33/33 35/35/35
f 36/36/36 34/34/34 35/35/35
f 36/36/36 35/35/35 37/37/37
f 35/35/35 38/38/38 37/37/37
f 38/38/38 39/39/39 37/37/37
f 39/39/39 40/40/40 37/37/37
f 39/39/39 41/41/41 40/40/40
f 41/41/41 42/42/42 40/40/40
f 41/41/41 43/43/43 42/42/42
f 43/43/43 44/44/44 42/42/42
f 47/47/47 46/46/46 45/45/45
f 46/46/46 48/48/48 45/45/45
f 46/46/46 49/49/49 48/48/48
f 49/49/49 50/50/50 48/48/48
f 50/50/50 49/49/49 51/51/51
f 49/49/49 52/52/52 51/51/51
f 51/51/51 52/52/52 53/53/53
f 54/54/54 51/51/51 53/53/53
f 54/54/54 53/53/53 55/55/55
f 56/56/56 54/54/54 55/55/55
g Plane_1
f 59/59/59 58/58/58 57/57/57
f 57/57/57 60/60/60 59/59/59
f 57/57/57 61/61/61 60/60/60
f 61/61/61 62/62/62 60/60/60
f 61/61/61 63/63/63 62/62/62
f 63/63/63 64/64/64 62/62/62
f 63/63/63 65/65/65 64/64/64
f 65/65/65 66/66/66 64/64/64
f 65/65/65 67/67/67 66/66/66
f 67/67/67 68/68/68 66/66/66
f 67/67/67 69/69/69 68/68/68
f 69/69/69 70/70/70 68/68/68
f 69/69/69 71/71/71 70/70/70
f 71/71/71 72/72/72 70/70/70
f 71/71/71 73/73/73 72/72/72
f 73/73/73 74/74/74 72/72/72
f 73/73/73 75/75/75 74/74/74
f 75/75/75 76/76/76 74/74/74
f 75/75/75 77/77/77 76/76/76
f 77/77/77 78/78/78 76/76/76
f 77/77/77 79/79/79 78/78/78
f 79/79/79 80/80/80 78/78/78
g Plane_2
f 83/83/83 82/82/82 81/81/81
f 81/81/81 84/84/84 83/83/83
f 81/81/81 85/85/85 84/84/84
f 85/85/85 86/86/86 84/84/84
f 85/85/85 87/87/87 86/86/86
f 87/87/87 88/88/88 86/86/86
f 87/87/87 89/89/89 88/88/88
f 89/89/89 90/90/90 88/88/88
f 89/89/89 91/91/91 90/90/90
f 91/91/91 92/92/92 90/90/90
f 91/91/91 93/93/93 92/92/92
f 93/93/93 94/94/94 92/92/92
f 93/93/93 95/95/95 94/94/94
f 95/95/95 96/96/96 94/94/94
f 95/95/95 97/97/97 96/96/96
f 97/97/97 98/98/98 96/96/96
f 97/97/97 99/99/99 98/98/98
f 99/99/99 100/100/100 98/98/98
f 99/99/99 101/101/101 100/100/100
f 101/101/101 102/102/102 100/100/100
f 101/101/101 103/103/103 102/102/102
f 103/103/103 104/104/104 102/102/102
