g sphere_0
v 0 -0.5257311 -0.8506508
v 0.5 -0.3090169 -0.8090169
v 0.8506508 0 -0.5257311
v 0.3090169 -0.8090169 -0.5
v 0.8090169 -0.5 -0.3090169
v 0.5257311 -0.8506508 0
v 0.5 0.3090169 -0.8090169
v 0 0 -0.9999999
v 0 0.5257311 -0.8506508
v -0.5 -0.3090169 -0.8090169
v -0.8506508 0 -0.5257311
v -0.5 0.3090169 -0.8090169
v -0.8090169 -0.5 -0.3090169
v -0.3090169 -0.8090169 -0.5
v -0.5257311 -0.8506508 0
v 0 -0.9999999 0
v 0.3090169 -0.8090169 0.5
v 0 -0.5257311 0.8506508
v -0.3090169 -0.8090169 0.5
v 0.5 -0.3090169 0.8090169
v 0.8090169 -0.5 0.3090169
v 0.8506508 0 0.5257311
v 0.9999999 0 0
v 0.8090169 0.5 -0.3090169
v 0.5257311 0.8506508 0
v 0.8090169 0.5 0.3090169
v 0.3090169 0.8090169 -0.5
v -0.3090169 0.8090169 -0.5
v -0.5257311 0.8506508 0
v 0 0.9999999 0
v -0.8090169 0.5 -0.3090169
v -0.9999999 0 0
v -0.8506508 0 0.5257311
v -0.8090169 0.5 0.3090169
v -0.8090169 -0.5 0.3090169
v -0.5 -0.3090169 0.8090169
v 0 0.5257311 0.8506508
v 0.3090169 0.8090169 0.5
v -0.3090169 0.8090169 0.5
v 0.5 0.3090169 0.8090169
v 0 0 0.9999999
v -0.5 0.3090169 0.8090169
vn 0 -0.5257311 -0.8506508
vn 0.5 -0.3090169 -0.8090169
vn 0.8506508 0 -0.5257311
vn 0.3090169 -0.8090169 -0.5
vn 0.8090169 -0.5 -0.3090169
vn 0.5257311 -0.8506508 0
vn 0.5 0.3090169 -0.8090169
vn 0 0 -0.9999999
vn 0 0.5257311 -0.8506508
vn -0.5 -0.3090169 -0.8090169
vn -0.8506508 0 -0.5257311
vn -0.5 0.3090169 -0.8090169
vn -0.8090169 -0.5 -0.3090169
vn -0.3090169 -0.8090169 -0.5
vn -0.5257311 -0.8506508 0
vn 0 -0.9999999 0
vn 0.3090169 -0.8090169 0.5
vn 0 -0.5257311 0.8506508
vn -0.3090169 -0.8090169 0.5
vn 0.5 -0.3090169 0.8090169
vn 0.8090169 -0.5 0.3090169
vn 0.8506508 0 0.5257311
vn 0.9999999 0 0
vn 0.8090169 0.5 -0.3090169
vn 0.5257311 0.8506508 0
vn 0.8090169 0.5 0.3090169
vn 0.3090169 0.8090169 -0.5
vn -0.3090169 0.8090169 -0.5
vn -0.5257311 0.8506508 0
vn 0 0.9999999 0
vn -0.8090169 0.5 -0.3090169
vn -0.9999999 0 0
vn -0.8506508 0 0.5257311
vn -0.8090169 0.5 0.3090169
vn -0.8090169 -0.5 0.3090169
vn -0.5 -0.3090169 0.8090169
vn 0 0.5257311 0.8506508
vn 0.3090169 0.8090169 0.5
vn -0.3090169 0.8090169 0.5
vn 0.5 0.3090169 0.8090169
vn 0 0 0.9999999
vn -0.5 0.3090169 0.8090169
g sphere_0_0
f 4/4/4 1/1/1 2/2/2
f 2/2/2 5/5/5 4/4/4
f 5/5/5 2/2/2 3/3/3
f 6/6/6 4/4/4 5/5/5
f 7/7/7 3/3/3 2/2/2
f 2/2/2 8/8/8 7/7/7
f 8/8/8 2/2/2 1/1/1
f 9/9/9 7/7/7 8/8/8
f 8/8/8 1/1/1 10/10/10
f 10/10/10 12/12/12 8/8/8
f 12/12/12 10/10/10 11/11/11
f 9/9/9 8/8/8 12/12/12
f 13/13/13 11/11/11 10/10/10
f 10/10/10 14/14/14 13/13/13
f 14/14/14 10/10/10 1/1/1
f 15/15/15 13/13/13 14/14/14
f 14/14/14 1/1/1 4/4/4
f 4/4/4 16/16/16 14/14/14
f 16/16/16 4/4/4 6/6/6
f 15/15/15 14/14/14 16/16/16
f 16/16/16 6/6/6 17/17/17
f 17/17/17 19/19/19 16/16/16
f 19/19/19 17/17/17 18/18/18
f 15/15/15 16/16/16 19/19/19
f 20/20/20 18/18/18 17/17/17
f 17/17/17 21/21/21 20/20/20
f 21/21/21 17/17/17 6/6/6
f 22/22/22 20/20/20 21/21/21
f 21/21/21 6/6/6 5/5/5
f 5/5/5 23/23/23 21/21/21
f 23/23/23 5/5/5 3/3/3
f 22/22/22 21/21/21 23/23/23
f 23/23/23 3/3/3 24/24/24
f 24/24/24 26/26/26 23/23/23
f 26/26/26 24/24/24 25/25/25
f 22/22/22 23/23/23 26/26/26
f 24/24/24 3/3/3 7/7/7
f 7/7/7 27/27/27 24/24/24
f 27/27/27 7/7/7 9/9/9
f 25/25/25 24/24/24 27/27/27
f 27/27/27 9/9/9 28/28/28
f 28/28/28 30/30/30 27/27/27
f 30/30/30 28/28/28 29/29/29
f 25/25/25 27/27/27 30/30/30
f 28/28/28 9/9/9 12/12/12
f 12/12/12 31/31/31 28/28/28
f 31/31/31 12/12/12 11/11/11
f 29/29/29 28/28/28 31/31/31
f 31/31/31 11/11/11 32/32/32
f 32/32/32 34/34/34 31/31/31
f 34/34/34 32/32/32 33/33/33
f 29/29/29 31/31/31 34/34/34
f 32/32/32 11/11/11 13/13/13
f 13/13/13 35/35/35 32/32/32
f 35/35/35 13/13/13 15/15/15
f 33/33/33 32/32/32 35/35/35
f 35/35/35 15/15/15 19/19/19
f 19/19/19 36/36/36 35/35/35
f 36/36/36 19/19/19 18/18/18
f 33/33/33 35/35/35 36/36/36
f 39/39/39 37/37/37 38/38/38
f 38/38/38 30/30/30 39/39/39
f 30/30/30 38/38/38 25/25/25
f 29/29/29 39/39/39 30/30/30
f 26/26/26 25/25/25 38/38/38
f 38/38/38 40/40/40 26/26/26
f 40/40/40 38/38/38 37/37/37
f 22/22/22 26/26/26 40/40/40
f 40/40/40 37/37/37 41/41/41
f 41/41/41 20/20/20 40/40/40
f 20/20/20 41/41/41 18/18/18
f 22/22/22 40/40/40 20/20/20
f 36/36/36 18/18/18 41/41/41
f 41/41/41 42/42/42 36/36/36
f 42/42/42 41/41/41 37/37/37
f 33/33/33 36/36/36 42/42/42
f 42/42/42 37/37/37 39/39/39
f 39/39/39 34/34/34 42/42/42
f 34/34/34 39/39/39 29/29/29
f 33/33/33 42/42/42 34/34/34
