g sphere_1
v 0 -0.5257311 -0.8506508
v 0.3404804 -0.3967796 -0.8524314
v 0.6420028 -0.2104285 -0.7372599
v 0.8506508 0 -0.5257311
v 0.2104285 -0.73726 -0.6420029
v 0.5773503 -0.5773503 -0.5773503
v 0.8524314 -0.3404804 -0.3967796
v 0.3967795 -0.8524313 -0.3404804
v 0.7372599 -0.6420028 -0.2104285
v 0.5257311 -0.8506508 0
v 0.6420029 0.2104285 -0.73726
v 0.3568221 1.682645E-08 -0.9341723
v 0 -0.1863511 -0.9824833
v 0.3404804 0.3967795 -0.8524313
v 0 0.1863511 -0.9824832
v 0 0.5257311 -0.8506508
v -0.3404804 -0.3967796 -0.8524314
v -0.6420028 -0.2104285 -0.7372599
v -0.8506508 0 -0.5257311
v -0.3568221 1.682645E-08 -0.9341723
v -0.6420029 0.2104285 -0.73726
v -0.3404804 0.3967795 -0.8524313
v -0.8524314 -0.3404804 -0.3967796
v -0.5773503 -0.5773503 -0.5773503
v -0.2104285 -0.73726 -0.6420029
v -0.7372599 -0.6420028 -0.2104285
v -0.3967795 -0.8524313 -0.3404804
v -0.5257311 -0.8506508 0
v -1.682645E-08 -0.9341723 -0.3568221
v 0.1863511 -0.9824833 0
v -0.1863511 -0.9824832 0
v 0.3967796 -0.8524314 0.3404804
v 0.2104285 -0.7372599 0.6420028
v 0 -0.5257311 0.8506508
v -1.682645E-08 -0.9341723 0.3568221
v -0.2104285 -0.73726 0.6420029
v -0.3967795 -0.8524313 0.3404804
v 0.3404804 -0.3967796 0.8524314
v 0.5773503 -0.5773503 0.5773503
v 0.73726 -0.6420029 0.2104285
v 0.6420028 -0.2104285 0.7372599
v 0.8524313 -0.3404804 0.3967795
v 0.8506508 0 0.5257311
v 0.9341723 -0.3568221 1.682645E-08
v 0.9824833 0 -0.1863511
v 0.9824832 0 0.1863511
v 0.8524314 0.3404804 -0.3967796
v 0.7372599 0.6420028 -0.2104285
v 0.5257311 0.8506508 0
v 0.9341723 0.3568221 1.682645E-08
v 0.73726 0.6420029 0.2104285
v 0.8524313 0.3404804 0.3967795
v 0.5773503 0.5773503 -0.5773503
v 0.2104285 0.73726 -0.6420029
v 0.3967795 0.8524313 -0.3404804
v -0.2104285 0.73726 -0.6420029
v -0.3967795 0.8524313 -0.3404804
v -0.5257311 0.8506508 0
v 1.682645E-08 0.9341723 -0.3568221
v -0.1863511 0.9824833 0
v 0.1863511 0.9824832 0
v -0.5773503 0.5773503 -0.5773503
v -0.8524314 0.3404804 -0.3967796
v -0.7372599 0.6420028 -0.2104285
v -0.9824833 0 -0.1863511
v -0.9824832 0 0.1863511
v -0.8506508 0 0.5257311
v -0.9341723 0.3568221 0
v -0.8524314 0.3404804 0.3967796
v -0.7372599 0.6420028 0.2104285
v -0.9341723 -0.3568221 1.682645E-08
v -0.73726 -0.6420029 0.2104285
v -0.8524313 -0.3404804 0.3967795
v -0.5773503 -0.5773503 0.5773503
v -0.3404804 -0.3967796 0.8524314
v -0.6420028 -0.2104285 0.7372599
v 0 0.5257311 0.8506508
v 0.2104285 0.73726 0.6420029
v 0.3967795 0.8524313 0.3404804
v -0.2104285 0.73726 0.6420029
v -1.682645E-08 0.9341723 0.3568221
v -0.3967795 0.8524313 0.3404804
v 0.5773503 0.5773503 0.5773503
v 0.3404804 0.3967796 0.8524314
v 0.6420028 0.2104285 0.7372599
v 0 0.1863511 0.9824833
v 0 -0.1863511 0.9824832
v 0.3568221 0 0.9341723
v -0.3568221 0 0.9341723
v -0.3404804 0.3967796 0.8524314
v -0.6420028 0.2104285 0.7372599
v -0.5773503 0.5773503 0.5773503
vn 0 -0.5257311 -0.8506508
vn 0.3404804 -0.3967796 -0.8524314
vn 0.6420028 -0.2104285 -0.7372599
vn 0.8506508 0 -0.5257311
vn 0.2104285 -0.73726 -0.6420029
vn 0.5773503 -0.5773503 -0.5773503
vn 0.8524314 -0.3404804 -0.3967796
vn 0.3967795 -0.8524313 -0.3404804
vn 0.7372599 -0.6420028 -0.2104285
vn 0.5257311 -0.8506508 0
vn 0.6420029 0.2104285 -0.73726
vn 0.3568221 1.682645E-08 -0.9341723
vn 0 -0.1863511 -0.9824833
vn 0.3404804 0.3967795 -0.8524313
vn 0 0.1863511 -0.9824832
vn 0 0.5257311 -0.8506508
vn -0.3404804 -0.3967796 -0.8524314
vn -0.6420028 -0.2104285 -0.7372599
vn -0.8506508 0 -0.5257311
vn -0.3568221 1.682645E-08 -0.9341723
vn -0.6420029 0.2104285 -0.73726
vn -0.3404804 0.3967795 -0.8524313
vn -0.8524314 -0.3404804 -0.3967796
vn -0.5773503 -0.5773503 -0.5773503
vn -0.2104285 -0.73726 -0.6420029
vn -0.7372599 -0.6420028 -0.2104285
vn -0.3967795 -0.8524313 -0.3404804
vn -0.5257311 -0.8506508 0
vn -1.682645E-08 -0.9341723 -0.3568221
vn 0.1863511 -0.9824833 0
vn -0.1863511 -0.9824832 0
vn 0.3967796 -0.8524314 0.3404804
vn 0.2104285 -0.7372599 0.6420028
vn 0 -0.5257311 0.8506508
vn -1.682645E-08 -0.9341723 0.3568221
vn -0.2104285 -0.73726 0.6420029
vn -0.3967795 -0.8524313 0.3404804
vn 0.3404804 -0.3967796 0.8524314
vn 0.5773503 -0.5773503 0.5773503
vn 0.73726 -0.6420029 0.2104285
vn 0.6420028 -0.2104285 0.7372599
vn 0.8524313 -0.3404804 0.3967795
vn 0.8506508 0 0.5257311
vn 0.9341723 -0.3568221 1.682645E-08
vn 0.9824833 0 -0.1863511
vn 0.9824832 0 0.1863511
vn 0.8524314 0.3404804 -0.3967796
vn 0.7372599 0.6420028 -0.2104285
vn 0.5257311 0.8506508 0
vn 0.9341723 0.3568221 1.682645E-08
vn 0.73726 0.6420029 0.2104285
vn 0.8524313 0.3404804 0.3967795
vn 0.5773503 0.5773503 -0.5773503
vn 0.2104285 0.73726 -0.6420029
vn 0.3967795 0.8524313 -0.3404804
vn -0.2104285 0.73726 -0.6420029
vn -0.3967795 0.8524313 -0.3404804
vn -0.5257311 0.8506508 0
vn 1.682645E-08 0.9341723 -0.3568221
vn -0.1863511 0.9824833 0
vn 0.1863511 0.9824832 0
vn -0.5773503 0.5773503 -0.5773503
vn -0.8524314 0.3404804 -0.3967796
vn -0.7372599 0.6420028 -0.2104285
vn -0.9824833 0 -0.1863511
vn -0.9824832 0 0.1863511
vn -0.8506508 0 0.5257311
vn -0.9341723 0.3568221 0
vn -0.8524314 0.3404804 0.3967796
vn -0.7372599 0.6420028 0.2104285
vn -0.9341723 -0.3568221 1.682645E-08
vn -0.73726 -0.6420029 0.2104285
vn -0.8524313 -0.3404804 0.3967795
vn -0.5773503 -0.5773503 0.5773503
vn -0.3404804 -0.3967796 0.8524314
vn -0.6420028 -0.2104285 0.7372599
vn 0 0.5257311 0.8506508
vn 0.2104285 0.73726 0.6420029
vn 0.3967795 0.8524313 0.3404804
vn -0.2104285 0.73726 0.6420029
vn -1.682645E-08 0.9341723 0.3568221
vn -0.3967795 0.8524313 0.3404804
vn 0.5773503 0.5773503 0.5773503
vn 0.3404804 0.3967796 0.8524314
vn 0.6420028 0.2104285 0.7372599
vn 0 0.1863511 0.9824833
vn 0 -0.1863511 0.9824832
vn 0.3568221 0 0.9341723
vn -0.3568221 0 0.9341723
vn -0.3404804 0.3967796 0.8524314
vn -0.6420028 0.2104285 0.7372599
vn -0.5773503 0.5773503 0.5773503
g sphere_1_0
f 5/5/5 1/1/1 2/2/2
f 2/2/2 6/6/6 5/5/5
f 6/6/6 2/2/2 3/3/3
f 3/3/3 7/7/7 6/6/6
f 7/7/7 3/3/3 4/4/4
f 8/8/8 5/5/5 6/6/6
f 6/6/6 9/9/9 8/8/8
f 9/9/9 6/6/6 7/7/7
f 10/10/10 8/8/8 9/9/9
f 11/11/11 4/4/4 3/3/3
f 3/3/3 12/12/12 11/11/11
f 12/12/12 3/3/3 2/2/2
f 2/2/2 13/13/13 12/12/12
f 13/13/13 2/2/2 1/1/1
f 14/14/14 11/11/11 12/12/12
f 12/12/12 15/15/15 14/14/14
f 15/15/15 12/12/12 13/13/13
f 16/16/16 14/14/14 15/15/15
f 13/13/13 1/1/1 17/17/17
f 17/17/17 20/20/20 13/13/13
f 20/20/20 17/17/17 18/18/18
f 18/18/18 21/21/21 20/20/20
f 21/21/21 18/18/18 19/19/19
f 15/15/15 13/13/13 20/20/20
f 20/20/20 22/22/22 15/15/15
f 22/22/22 20/20/20 21/21/21
f 16/16/16 15/15/15 22/22/22
f 23/23/23 19/19/19 18/18/18
f 18/18/18 24/24/24 23/23/23
f 24/24/24 18/18/18 17/17/17
f 17/17/17 25/25/25 24/24/24
f 25/25/25 17/17/17 1/1/1
f 26/26/26 23/23/23 24/24/24
f 24/24/24 27/27/27 26/26/26
f 27/27/27 24/24/24 25/25/25
f 28/28/28 26/26/26 27/27/27
f 25/25/25 1/1/1 5/5/5
f 5/5/5 29/29/29 25/25/25
f 29/29/29 5/5/5 8/8/8
f 8/8/8 30/30/30 29/29/29
f 30/30/30 8/8/8 10/10/10
f 27/27/27 25/25/25 29/29/29
f 29/29/29 31/31/31 27/27/27
f 31/31/31 29/29/29 30/30/30
f 28/28/28 27/27/27 31/31/31
f 30/30/30 10/10/10 32/32/32
f 32/32/32 35/35/35 30/30/30
f 35/35/35 32/32/32 33/33/33
f 33/33/33 36/36/36 35/35/35
f 36/36/36 33/33/33 34/34/34
f 31/31/31 30/30/30 35/35/35
f 35/35/35 37/37/37 31/31/31
f 37/37/37 35/35/35 36/36/36
f 28/28/28 31/31/31 37/37/37
f 38/38/38 34/34/34 33/33/33
f 33/33/33 39/39/39 38/38/38
f 39/39/39 33/33/33 32/32/32
f 32/32/32 40/40/40 39/39/39
f 40/40/40 32/32/32 10/10/10
f 41/41/41 38/38/38 39/39/39
f 39/39/39 42/42/42 41/41/41
f 42/42/42 39/39/39 40/40/40
f 43/43/43 41/41/41 42/42/42
f 40/40/40 10/10/10 9/9/9
f 9/9/9 44/44/44 40/40/40
f 44/44/44 9/9/9 7/7/7
f 7/7/7 45/45/45 44/44/44
f 45/45/45 7/7/7 4/4/4
f 42/42/42 40/40/40 44/44/44
f 44/44/44 46/46/46 42/42/42
f 46/46/46 44/44/44 45/45/45
f 43/43/43 42/42/42 46/46/46
f 45/45/45 4/4/4 47/47/47
f 47/47/47 50/50/50 45/45/45
f 50/50/50 47/47/47 48/48/48
f 48/48/48 51/51/51 50/50/50
f 51/51/51 48/48/48 49/49/49
f 46/46/46 45/45/45 50/50/50
f 50/50/50 52/52/52 46/46/46
f 52/52/52 50/50/50 51/51/51
f 43/43/43 46/46/46 52/52/52
f 47/47/47 4/4/4 11/11/11
f 11/11/11 53/53/53 47/47/47
f 53/53/53 11/11/11 14/14/14
f 14/14/14 54/54/54 53/53/53
f 54/54/54 14/14/14 16/16/16
f 48/48/48 47/47/47 53/53/53
f 53/53/53 55/55/55 48/48/48
f 55/55/55 53/53/53 54/54/54
f 49/49/49 48/48/48 55/55/55
f 54/54/54 16/16/16 56/56/56
f 56/56/56 59/59/59 54/54/54
f 59/59/59 56/56/56 57/57/57
f 57/57/57 60/60/60 59/59/59
f 60/60/60 57/57/57 58/58/58
f 55/55/55 54/54/54 59/59/59
f 59/59/59 61/61/61 55/55/55
f 61/61/61 59/59/59 60/60/60
f 49/49/49 55/55/55 61/61/61
f 56/56/56 16/16/16 22/22/22
f 22/22/22 62/62/62 56/56/56
f 62/62/62 22/22/22 21/21/21
f 21/21/21 63/63/63 62/62/62
f 63/63/63 21/21/21 19/19/19
f 57/57/57 56/56/56 62/62/62
f 62/62/62 64/64/64 57/57/57
f 64/64/64 62/62/62 63/63/63
f 58/58/58 57/57/57 64/64/64
f 63/63/63 19/19/19 65/65/65
f 65/65/65 68/68/68 63/63/63
f 68/68/68 65/65/65 66/66/66
f 66/66/66 69/69/69 68/68/68
f 69/69/69 66/66/66 67/67/67
f 64/64/64 63/63/63 68/68/68
f 68/68/68 70/70/70 64/64/64
f 70/70/70 68/68/68 69/69/69
f 58/58/58 64/64/64 70/70/70
f 65/65/65 19/19/19 23/23/23
f 23/23/23 71/71/71 65/65/65
f 71/71/71 23/23/23 26/26/26
f 26/26/26 72/72/72 71/71/71
f 72/72/72 26/26/26 28/28/28
f 66/66/66 65/65/65 71/71/71
f 71/71/71 73/73/73 66/66/66
f 73/73/73 71/71/71 72/72/72
f 67/67/67 66/66/66 73/73/73
f 72/72/72 28/28/28 37/37/37
f 37/37/37 74/74/74 72/72/72
f 74/74/74 37/37/37 36/36/36
f 36/36/36 75/75/75 74/74/74
f 75/75/75 36/36/36 34/34/34
f 73/73/73 72/72/72 74/74/74
f 74/74/74 76/76/76 73/73/73
f 76/76/76 74/74/74 75/75/75
f 67/67/67 73/73/73 76/76/76
f 80/80/80 77/77/77 78/78/78
f 78/78/78 81/81/81 80/80/80
f 81/81/81 78/78/78 79/79/79
f 79/79/79 61/61/61 81/81/81
f 61/61/61 79/79/79 49/49/49
f 82/82/82 80/80/80 81/81/81
f 81/81/81 60/60/60 82/82/82
f 60/60/60 81/81/81 61/61/61
f 58/58/58 82/82/82 60/60/60
f 51/51/51 49/49/49 79/79/79
f 79/79/79 83/83/83 51/51/51
f 83/83/83 79/79/79 78/78/78
f 78/78/78 84/84/84 83/83/83
f 84/84/84 78/78/78 77/77/77
f 52/52/52 51/51/51 83/83/83
f 83/83/83 85/85/85 52/52/52
f 85/85/85 83/83/83 84/84/84
f 43/43/43 52/52/52 85/85/85
f 84/84/84 77/77/77 86/86/86
f 86/86/86 88/88/88 84/84/84
f 88/88/88 86/86/86 87/87/87
f 87/87/87 38/38/38 88/88/88
f 38/38/38 87/87/87 34/34/34
f 85/85/85 84/84/84 88/88/88
f 88/88/88 41/41/41 85/85/85
f 41/41/41 88/88/88 38/38/38
f 43/43/43 85/85/85 41/41/41
f 75/75/75 34/34/34 87/87/87
f 87/87/87 89/89/89 75/75/75
f 89/89/89 87/87/87 86/86/86
f 86/86/86 90/90/90 89/89/89
f 90/90/90 86/86/86 77/77/77
f 76/76/76 75/75/75 89/89/89
f 89/89/89 91/91/91 76/76/76
f 91/91/91 89/89/89 90/90/90
f 67/67/67 76/76/76 91/91/91
f 90/90/90 77/77/77 80/80/80
f 80/80/80 92/92/92 90/90/90
f 92/92/92 80/80/80 82/82/82
f 82/82/82 70/70/70 92/92/92
f 70/70/70 82/82/82 58/58/58
f 91/91/91 90/90/90 92/92/92
f 92/92/92 69/69/69 91/91/91
f 69/69/69 92/92/92 70/70/70
f 67/67/67 91/91/91 69/69/69
