g torus_1
v -3 0 0
v -2.866025 0 0.5
v -2.5 0 0.8660254
v -2 0 1
v -1.5 0 0.8660254
v -1.133975 0 0.5000001
v -1 0 -8.742278E-08
v -1.133975 0 -0.5
v -1.5 0 -0.8660254
v -2 0 -1
v -2.5 0 -0.8660254
v -2.866025 0 -0.4999998
v -2.598076 1.5 0
v -2.482051 1.433013 0.5
v -2.165063 1.25 0.8660254
v -1.732051 1 1
v -1.299038 0.75 0.8660254
v -0.9820508 0.5669873 0.5000001
v -0.8660254 0.5 -8.742278E-08
v -0.9820508 0.5669873 -0.5
v -1.299038 0.7500001 -0.8660254
v -1.732051 1 -1
v -2.165063 1.25 -0.8660254
v -2.482051 1.433013 -0.4999998
v -1.5 2.598076 0
v -1.433013 2.482051 0.5
v -1.25 2.165064 0.8660254
v -0.9999999 1.732051 1
v -0.7499999 1.299038 0.8660254
v -0.5669873 0.9820509 0.5000001
v -0.5 0.8660254 -8.742278E-08
v -0.5669873 0.9820509 -0.5
v -0.75 1.299038 -0.8660254
v -0.9999999 1.732051 -1
v -1.25 2.165064 -0.8660254
v -1.433013 2.482051 -0.4999998
v 1.311342E-07 3 0
v 1.252779E-07 2.866025 0.5
v 1.092785E-07 2.5 0.8660254
v 8.742278E-08 2 1
v 6.556708E-08 1.5 0.8660254
v 4.95676E-08 1.133975 0.5000001
v 4.371139E-08 1 -8.742278E-08
v 4.95676E-08 1.133975 -0.5
v 6.556709E-08 1.5 -0.8660254
v 8.742278E-08 2 -1
v 1.092785E-07 2.5 -0.8660254
v 1.252779E-07 2.866025 -0.4999998
v 1.5 2.598076 0
v 1.433013 2.482051 0.5
v 1.25 2.165063 0.8660254
v 1 1.732051 1
v 0.7500001 1.299038 0.8660254
v 0.5669874 0.9820508 0.5000001
v 0.5000001 0.8660254 -8.742278E-08
v 0.5669874 0.9820508 -0.5
v 0.7500001 1.299038 -0.8660254
v 1 1.732051 -1
v 1.25 2.165063 -0.8660254
v 1.433013 2.482051 -0.4999998
v 2.598076 1.5 0
v 2.482051 1.433013 0.5
v 2.165063 1.25 0.8660254
v 1.732051 1 1
v 1.299038 0.7500001 0.8660254
v 0.9820508 0.5669874 0.5000001
v 0.8660254 0.5000001 -8.742278E-08
v 0.9820508 0.5669874 -0.5
v 1.299038 0.7500001 -0.8660254
v 1.732051 1 -1
v 2.165063 1.25 -0.8660254
v 2.482051 1.433013 -0.4999998
v 3 -2.622683E-07 0
v 2.866025 -2.505559E-07 0.5
v 2.5 -2.185569E-07 0.8660254
v 2 -1.748456E-07 1
v 1.5 -1.311342E-07 0.8660254
v 1.133975 -9.913521E-08 0.5000001
v 1 -8.742278E-08 -8.742278E-08
v 1.133975 -9.913521E-08 -0.5
v 1.5 -1.311342E-07 -0.8660254
v 2 -1.748456E-07 -1
v 2.5 -2.185569E-07 -0.8660254
v 2.866025 -2.505559E-07 -0.4999998
v 2.598076 -1.5 0
v 2.482051 -1.433013 0.5
v 2.165063 -1.25 0.8660254
v 1.732051 -0.9999999 1
v 1.299038 -0.7499999 0.8660254
v 0.9820508 -0.5669873 0.5000001
v 0.8660254 -0.5 -8.742278E-08
v 0.9820508 -0.5669873 -0.5
v 1.299038 -0.75 -0.8660254
v 1.732051 -0.9999999 -1
v 2.165063 -1.25 -0.8660254
v 2.482051 -1.433013 -0.4999998
v 1.5 -2.598076 0
v 1.433012 -2.482051 0.5
v 1.25 -2.165064 0.8660254
v 0.9999998 -1.732051 1
v 0.7499998 -1.299038 0.8660254
v 0.5669872 -0.9820509 0.5000001
v 0.4999999 -0.8660254 -8.742278E-08
v 0.5669872 -0.9820509 -0.5
v 0.7499999 -1.299038 -0.8660254
v 0.9999998 -1.732051 -1
v 1.25 -2.165064 -0.8660254
v 1.433012 -2.482051 -0.4999998
v -3.577464E-08 -3 0
v -3.417701E-08 -2.866025 0.5
v -2.98122E-08 -2.5 0.8660254
v -2.384976E-08 -2 1
v -1.788732E-08 -1.5 0.8660254
v -1.352251E-08 -1.133975 0.5000001
v -1.192488E-08 -1 -8.742278E-08
v -1.352251E-08 -1.133975 -0.5
v -1.788732E-08 -1.5 -0.8660254
v -2.384976E-08 -2 -1
v -2.98122E-08 -2.5 -0.8660254
v -3.417701E-08 -2.866025 -0.4999998
v -1.5 -2.598076 0
v -1.433012 -2.482051 0.5
v -1.25 -2.165064 0.8660254
v -0.9999998 -1.732051 1
v -0.7499998 -1.299038 0.8660254
v -0.5669872 -0.9820509 0.5000001
v -0.4999999 -0.8660254 -8.742278E-08
v -0.5669872 -0.9820509 -0.5
v -0.7499999 -1.299038 -0.8660254
v -0.9999998 -1.732051 -1
v -1.25 -2.165064 -0.8660254
v -1.433012 -2.482051 -0.4999998
v -2.598077 -1.499999 0
v -2.482051 -1.433012 0.5
v -2.165064 -1.249999 0.8660254
v -1.732051 -0.9999995 1
v -1.299038 -0.7499996 0.8660254
v -0.982051 -0.566987 0.5000001
v -0.8660256 -0.4999998 -8.742278E-08
v -0.982051 -0.566987 -0.5
v -1.299038 -0.7499997 -0.8660254
v -1.732051 -0.9999995 -1
v -2.165064 -1.249999 -0.8660254
v -2.482051 -1.433012 -0.4999998
vn -1 0 0
vn -0.8660254 0 0.5
vn -0.5 0 0.8660254
vn 4.371139E-08 0 1
vn 0.5000001 0 0.8660254
vn 0.8660254 0 0.5000001
vn 1 0 -8.742278E-08
vn 0.8660254 0 -0.5
vn 0.4999999 0 -0.8660254
vn -1.192488E-08 0 -1
vn -0.4999999 0 -0.8660254
vn -0.8660256 0 -0.4999998
vn -0.8660254 0.5 0
vn -0.75 0.4330127 0.5
vn -0.4330127 0.25 0.8660254
vn 3.785517E-08 -2.185569E-08 1
vn 0.4330128 -0.25 0.8660254
vn 0.75 -0.4330127 0.5000001
vn 0.8660254 -0.5 -8.742278E-08
vn 0.75 -0.4330127 -0.5
vn 0.4330126 -0.25 -0.8660254
vn -1.032725E-08 5.96244E-09 -1
vn -0.4330126 0.25 -0.8660254
vn -0.7500001 0.4330128 -0.4999998
vn -0.5 0.8660254 0
vn -0.4330127 0.75 0.5
vn -0.25 0.4330127 0.8660254
vn 2.185569E-08 -3.785517E-08 1
vn 0.25 -0.4330128 0.8660254
vn 0.4330127 -0.75 0.5000001
vn 0.5 -0.8660254 -8.742278E-08
vn 0.4330127 -0.75 -0.5
vn 0.2499999 -0.4330126 -0.8660254
vn -5.96244E-09 1.032725E-08 -1
vn -0.2499999 0.4330126 -0.8660254
vn -0.4330128 0.7500002 -0.4999998
vn 4.371139E-08 1 0
vn 3.785517E-08 0.8660254 0.5
vn 2.185569E-08 0.5 0.8660254
vn -1.910685E-15 -4.371139E-08 1
vn -2.18557E-08 -0.5000001 0.8660254
vn -3.785517E-08 -0.8660254 0.5000001
vn -4.371139E-08 -1 -8.742278E-08
vn -3.785517E-08 -0.8660254 -0.5
vn -2.185569E-08 -0.4999999 -0.8660254
vn 5.212531E-16 1.192488E-08 -1
vn 2.185569E-08 0.4999999 -0.8660254
vn 3.785518E-08 0.8660256 -0.4999998
vn 0.5000001 0.8660254 0
vn 0.4330128 0.75 0.5
vn 0.25 0.4330127 0.8660254
vn -2.18557E-08 -3.785517E-08 1
vn -0.2500001 -0.4330128 0.8660254
vn -0.4330128 -0.75 0.5000001
vn -0.5000001 -0.8660254 -8.742278E-08
vn -0.4330128 -0.75 -0.5
vn -0.25 -0.4330126 -0.8660254
vn 5.962441E-09 1.032725E-08 -1
vn 0.25 0.4330126 -0.8660254
vn 0.4330128 0.7500001 -0.4999998
vn 0.8660254 0.5000001 0
vn 0.75 0.4330128 0.5
vn 0.4330127 0.25 0.8660254
vn -3.785517E-08 -2.18557E-08 1
vn -0.4330128 -0.2500001 0.8660254
vn -0.75 -0.4330128 0.5000001
vn -0.8660254 -0.5000001 -8.742278E-08
vn -0.75 -0.4330128 -0.5
vn -0.4330126 -0.25 -0.8660254
vn 1.032725E-08 5.962441E-09 -1
vn 0.4330126 0.25 -0.8660254
vn 0.7500001 0.4330128 -0.4999998
vn 1 -8.742278E-08 0
vn 0.8660254 -7.571035E-08 0.5
vn 0.5 -4.371138E-08 0.8660254
vn -4.371139E-08 3.821371E-15 1
vn -0.5000001 4.371139E-08 0.8660254
vn -0.8660254 7.571035E-08 0.5000001
vn -1 8.742278E-08 -8.742278E-08
vn -0.8660254 7.571035E-08 -0.5
vn -0.4999999 4.371138E-08 -0.8660254
vn 1.192488E-08 -1.042506E-15 -1
vn 0.4999999 -4.371138E-08 -0.8660254
vn 0.8660256 -7.571036E-08 -0.4999998
vn 0.8660254 -0.5 0
vn 0.75 -0.4330127 0.5
vn 0.4330127 -0.25 0.8660254
vn -3.785517E-08 2.185569E-08 1
vn -0.4330128 0.25 0.8660254
vn -0.75 0.4330127 0.5000001
vn -0.8660254 0.5 -8.742278E-08
vn -0.75 0.4330127 -0.5
vn -0.4330126 0.2499999 -0.8660254
vn 1.032725E-08 -5.96244E-09 -1
vn 0.4330126 -0.2499999 -0.8660254
vn 0.7500001 -0.4330128 -0.4999998
vn 0.4999999 -0.8660254 0
vn 0.4330126 -0.75 0.5
vn 0.2499999 -0.4330127 0.8660254
vn -2.185569E-08 3.785517E-08 1
vn -0.25 0.4330128 0.8660254
vn -0.4330126 0.75 0.5000001
vn -0.4999999 0.8660254 -8.742278E-08
vn -0.4330126 0.75 -0.5
vn -0.2499999 0.4330126 -0.8660254
vn 5.962439E-09 -1.032725E-08 -1
vn 0.2499999 -0.4330126 -0.8660254
vn 0.4330127 -0.7500002 -0.4999998
vn -1.192488E-08 -1 0
vn -1.032725E-08 -0.8660254 0.5
vn -5.96244E-09 -0.5 0.8660254
vn 5.212531E-16 4.371139E-08 1
vn 5.962441E-09 0.5000001 0.8660254
vn 1.032725E-08 0.8660254 0.5000001
vn 1.192488E-08 1 -8.742278E-08
vn 1.032725E-08 0.8660254 -0.5
vn 5.962439E-09 0.4999999 -0.8660254
vn -1.422028E-16 -1.192488E-08 -1
vn -5.962439E-09 -0.4999999 -0.8660254
vn -1.032725E-08 -0.8660256 -0.4999998
vn -0.4999999 -0.8660254 0
vn -0.4330126 -0.75 0.5
vn -0.2499999 -0.4330127 0.8660254
vn 2.185569E-08 3.785517E-08 1
vn 0.25 0.4330128 0.8660254
vn 0.4330126 0.75 0.5000001
vn 0.4999999 0.8660254 -8.742278E-08
vn 0.4330126 0.75 -0.5
vn 0.2499999 0.4330126 -0.8660254
vn -5.962439E-09 -1.032725E-08 -1
vn -0.2499999 -0.4330126 -0.8660254
vn -0.4330127 -0.7500002 -0.4999998
vn -0.8660256 -0.4999998 0
vn -0.7500001 -0.4330125 0.5
vn -0.4330128 -0.2499999 0.8660254
vn 3.785518E-08 2.185568E-08 1
vn 0.4330128 0.2499999 0.8660254
vn 0.7500001 0.4330125 0.5000001
vn 0.8660256 0.4999998 -8.742278E-08
vn 0.7500001 0.4330125 -0.5
vn 0.4330127 0.2499998 -0.8660254
vn -1.032725E-08 -5.962438E-09 -1
vn -0.4330127 -0.2499998 -0.8660254
vn -0.7500003 -0.4330126 -0.4999998
g torus_1_0
f 14/14/14 1/1/1 2/2/2
f 1/1/1 14/14/14 13/13/13
f 15/15/15 2/2/2 3/3/3
f 2/2/2 15/15/15 14/14/14
f 16/16/16 3/3/3 4/4/4
f 3/3/3 16/16/16 15/15/15
f 17/17/17 4/4/4 5/5/5
f 4/4/4 17/17/17 16/16/16
f 18/18/18 5/5/5 6/6/6
f 5/5/5 18/18/18 17/17/17
f 19/19/19 6/6/6 7/7/7
f 6/6/6 19/19/19 18/18/18
f 20/20/20 7/7/7 8/8/8
f 7/7/7 20/20/20 19/19/19
f 21/21/21 8/8/8 9/9/9
f 8/8/8 21/21/21 20/20/20
f 22/22/22 9/9/9 10/10/10
f 9/9/9 22/22/22 21/21/21
f 23/23/23 10/10/10 11/11/11
f 10/10/10 23/23/23 22/22/22
f 24/24/24 11/11/11 12/12/12
f 11/11/11 24/24/24 23/23/23
f 13/13/13 12/12/12 1/1/1
f 12/12/12 13/13/13 24/24/24
f 26/26/26 13/13/13 14/14/14
f 13/13/13 26/26/26 25/25/25
f 27/27/27 14/14/14 15/15/15
f 14/14/14 27/27/27 26/26/26
f 28/28/28 15/15/15 16/16/16
f 15/15/15 28/28/28 27/27/27
f 29/29/29 16/16/16 17/17/17
f 16/16/16 29/29/29 28/28/28
f 30/30/30 17/17/17 18/18/18
f 17/17/17 30/30/30 29/29/29
f 31/31/31 18/18/18 19/19/19
f 18/18/18 31/31/31 30/30/30
f 32/32/32 19/19/19 20/20/20
f 19/19/19 32/32/32 31/31/31
f 33/33/33 20/20/20 21/21/21
f 20/20/20 33/33/33 32/32/32
f 34/34/34 21/21/21 22/22/22
f 21/21/21 34/34/34 33/33/33
f 35/35/35 22/22/22 23/23/23
f 22/22/22 35/35/35 34/34/34
f 36/36/36 23/23/23 24/24/24
f 23/23/23 36/36/36 35/35/35
f 25/25/25 24/24/24 13/13/13
f 24/24/24 25/25/25 36/36/36
f 38/38/38 25/25/25 26/26/26
f 25/25/25 38/38/38 37/37/37
f 39/39/39 26/26/26 27/27/27
f 26/26/26 39/39/39 38/38/38
f 40/40/40 27/27/27 28/28/28
f 27/27/27 40/40/40 39/39/39
f 41/41/41 28/28/28 29/29/29
f 28/28/28 41/41/41 40/40/40
f 42/42/42 29/29/29 30/30/30
f 29/29/29 42/42/42 41/41/41
f 43/43/43 30/30/30 31/31/31
f 30/30/30 43/43/43 42/42/42
f 44/44/44 31/31/31 32/32/32
f 31/31/31 44/44/44 43/43/43
f 45/45/45 32/32/32 33/33/33
f 32/32/32 45/45/45 44/44/44
f 46/46/46 33/33/33 34/34/34
f 33/33/33 46/46/46 45/45/45
f 47/47/47 34/34/34 35/35/35
f 34/34/34 47/47/47 46/46/46
f 48/48/48 35/35/35 36/36/36
f 35/35/35 48/48/48 47/47/47
f 37/37/37 36/36/36 25/25/25
f 36/36/36 37/37/37 48/48/48
f 50/50/50 37/37/37 38/38/38
f 37/37/37 50/50/50 49/49/49
f 51/51/51 38/38/38 39/39/39
f 38/38/38 51/51/51 50/50/50
f 52/52/52 39/39/39 40/40/40
f 39/39/39 52/52/52 51/51/51
f 53/53/53 40/40/40 41/41/41
f 40/40/40 53/53/53 52/52/52
f 54/54/54 41/41/41 42/42/42
f 41/41/41 54/54/54 53/53/53
f 55/55/55 42/42/42 43/43/43
f 42/42/42 55/55/55 54/54/54
f 56/56/56 43/43/43 44/44/44
f 43/43/43 56/56/56 55/55/55
f 57/57/57 44/44/44 45/45/45
f 44/44/44 57/57/57 56/56/56
f 58/58/58 45/45/45 46/46/46
f 45/45/45 58/58/58 57/57/57
f 59/59/59 46/46/46 47/47/47
f 46/46/46 59/59/59 58/58/58
f 60/60/60 47/47/47 48/48/48
f 47/47/47 60/60/60 59/59/59
f 49/49/49 48/48/48 37/37/37
f 48/48/48 49/49/49 60/60/60
f 62/62/62 49/49/49 50/50/50
f 49/49/49 62/62/62 61/61/61
f 63/63/63 50/50/50 51/51/51
f 50/50/50 63/63/63 62/62/62
f 64/64/64 51/51/51 52/52/52
f 51/51/51 64/64/64 63/63/63
f 65/65/65 52/52/52 53/53/53
f 52/52/52 65/65/65 64/64/64
f 66/66/66 53/53/53 54/54/54
f 53/53/53 66/66/66 65/65/65
f 67/67/67 54/54/54 55/55/55
f 54/54/54 67/67/67 66/66/66
f 68/68/68 55/55/55 56/56/56
f 55/55/55 68/68/68 67/67/67
f 69/69/69 56/56/56 57/57/57
f 56/56/56 69/69/69 68/68/68
f 70/70/70 57/57/57 58/58/58
f 57/57/57 70/70/70 69/69/69
f 71/71/71 58/58/58 59/59/59
f 58/58/58 71/71/71 70/70/70
f 72/72/72 59/59/59 60/60/60
f 59/59/59 72/72/72 71/71/71
f 61/61/61 60/60/60 49/49/49
f 60/60/60 61/61/61 72/72/72
f 74/74/74 61/61/61 62/62/62
f 61/61/61 74/74/74 73/73/73
f 75/75/75 62/62/62 63/63/63
f 62/62/62 75/75/75 74/74/74
f 76/76/76 63/63/63 64/64/64
f 63/63/63 76/76/76 75/75/75
f 77/77/77 64/64/64 65/65/65
f 64/64/64 77/77/77 76/76/76
f 78/78/78 65/65/65 66/66/66
f 65/65/65 78/78/78 77/77/77
f 79/79/79 66/66/66 67/67/67
f 66/66/66 79/79/79 78/78/78
f 80/80/80 67/67/67 68/68/68
f 67/67/67 80/80/80 79/79/79
f 81/81/81 68/68/68 69/69/69
f 68/68/68 81/81/81 80/80/80
f 82/82/82 69/69/69 70/70/70
f 69/69/69 82/82/82 81/81/81
f 83/83/83 70/70/70 71/71/71
f 70/70/70 83/83/83 82/82/82
f 84/84/84 71/71/71 72/72/72
f 71/71/71 84/84/84 83/83/83
f 73/73/73 72/72/72 61/61/61
f 72/72/72 73/73/73 84/84/84
f 86/86/86 73/73/73 74/74/74
f 73/73/73 86/86/86 85/85/85
f 87/87/87 74/74/74 75/75/75
f 74/74/74 87/87/87 86/86/86
f 88/88/88 75/75/75 76/76/76
f 75/75/75 88/88/88 87/87/87
f 89/89/89 76/76/76 77/77/77
f 76/76/76 89/89/89 88/88/88
f 90/90/90 77/77/77 78/78/78
f 77/77/77 90/90/90 89/89/89
f 91/91/91 78/78/78 79/79/79
f 78/78/78 91/91/91 90/90/90
f 92/92/92 79/79/79 80/80/80
f 79/79/79 92/92/92 91/91/91
f 93/93/93 80/80/80 81/81/81
f 80/80/80 93/93/93 92/92/92
f 94/94/94 81/81/81 82/82/82
f 81/81/81 94/94/94 93/93/93
f 95/95/95 82/82/82 83/83/83
f 82/82/82 95/95/95 94/94/94
f 96/96/96 83/83/83 84/84/84
f 83/83/83 96/96/96 95/95/95
f 85/85/85 84/84/84 73/73/73
f 84/84/84 85/85/85 96/96/96
f 98/98/98 85/85/85 86/86/86
f 85/85/85 98/98/98 97/97/97
f 99/99/99 86/86/86 87/87/87
f 86/86/86 99/99/99 98/98/98
f 100/100/100 87/87/87 88/88/88
f 87/87/87 100/100/100 99/99/99
f 101/101/101 88/88/88 89/89/89
f 88/88/88 101/101/101 100/100/100
f 102/102/102 89/89/89 90/90/90
f 89/89/89 102/102/102 101/101/101
f 103/103/103 90/90/90 91/91/91
f 90/90/90 103/103/103 102/102/102
f 104/104/104 91/91/91 92/92/92
f 91/91/91 104/104/104 103/103/103
f 105/105/105 92/92/92 93/93/93
f 92/92/92 105/105/105 104/104/104
f 106/106/106 93/93/93 94/94/94
f 93/93/93 106/106/106 105/105/105
f 107/107/107 94/94/94 95/95/95
f 94/94/94 107/107/107 106/106/106
f 108/108/108 95/95/95 96/96/96
f 95/95/95 108/108/108 107/107/107
f 97/97/97 96/96/96 85/85/85
f 96/96/96 97/97/97 108/108/108
f 110/110/110 97/97/97 98/98/98
f 97/97/97 110/110/110 109/109/109
f 111/111/111 98/98/98 99/99/99
f 98/98/98 111/111/111 110/110/110
f 112/112/112 99/99/99 100/100/100
f 99/99/99 112/112/112 111/111/111
f 113/113/113 100/100/100 101/101/101
f 100/100/100 113/113/113 112/112/112
f 114/114/114 101/101/101 102/102/102
f 101/101/101 114/114/114 113/113/113
f 115/115/115 102/102/102 103/103/103
f 102/102/102 115/115/115 114/114/114
f 116/116/116 103/103/103 104/104/104
f 103/103/103 116/116/116 115/115/115
f 117/117/117 104/104/104 105/105/105
f 104/104/104 117/117/117 116/116/116
f 118/118/118 105/105/105 106/106/106
f 105/105/105 118/118/118 117/117/117
f 119/119/119 106/106/106 107/107/107
f 106/106/106 119/119/119 118/118/118
f 120/120/120 107/107/107 108/108/108
f 107/107/107 120/120/120 119/119/119
f 109/109/109 108/108/108 97/97/97
f 108/108/108 109/109/109 120/120/120
f 122/122/122 109/109/109 110/110/110
f 109/109/109 122/122/122 121/121/121
f 123/123/123 110/110/110 111/111/111
f 110/110/110 123/123/123 122/122/122
f 124/124/124 111/111/111 112/112/112
f 111/111/111 124/124/124 123/123/123
f 125/125/125 112/112/112 113/113/113
f 112/112/112 125/125/125 124/124/124
f 126/126/126 113/113/113 114/114/114
f 113/113/113 126/126/126 125/125/125
f 127/127/127 114/114/114 115/115/115
f 114/114/114 127/127/127 126/126/126
f 128/128/128 115/115/115 116/116/116
f 115/115/115 128/128/128 127/127/127
f 129/129/129 116/116/116 117/117/117
f 116/116/116 129/129/129 128/128/128
f 130/130/130 117/117/117 118/118/118
f 117/117/117 130/130/130 129/129/129
f 131/131/131 118/118/118 119/119/119
f 118/118/118 131/131/131 130/130/130
f 132/132/132 119/119/119 120/120/120
f 119/119/119 132/132/132 131/131/131
f 121/121/121 120/120/120 109/109/109
f 120/120/120 121/121/121 132/132/132
f 134/134/134 121/121/121 122/122/122
f 121/121/121 134/134/134 133/133/133
f 135/135/135 122/122/122 123/123/123
f 122/122/122 135/135/135 134/134/134
f 136/136/136 123/123/123 124/124/124
f 123/123/123 136/136/136 135/135/135
f 137/137/137 124/124/124 125/125/125
f 124/124/124 137/137/137 136/136/136
f 138/138/138 125/125/125 126/126/126
f 125/125/125 138/138/138 137/137/137
f 139/139/139 126/126/126 127/127/127
f 126/126/126 139/139/139 138/138/138
f 140/140/140 127/127/127 128/128/128
f 127/127/127 140/140/140 139/139/139
f 141/141/141 128/128/128 129/129/129
f 128/128/128 141/141/141 140/140/140
f 142/142/142 129/129/129 130/130/130
f 129/129/129 142/142/142 141/141/141
f 143/143/143 130/130/130 131/131/131
f 130/130/130 143/143/143 142/142/142
f 144/144/144 131/131/131 132/132/132
f 131/131/131 144/144/144 143/143/143
f 133/133/133 132/132/132 121/121/121
f 132/132/132 133/133/133 144/144/144
f 2/2/2 133/133/133 134/134/134
f 133/133/133 2/2/2 1/1/1
f 3/3/3 134/134/134 135/135/135
f 134/134/134 3/3/3 2/2/2
f 4/4/4 135/135/135 136/136/136
f 135/135/135 4/4/4 3/3/3
f 5/5/5 136/136/136 137/137/137
f 136/136/136 5/5/5 4/4/4
f 6/6/6 137/137/137 138/138/138
f 137/137/137 6/6/6 5/5/5
f 7/7/7 138/138/138 139/139/139
f 138/138/138 7/7/7 6/6/6
f 8/8/8 139/139/139 140/140/140
f 139/139/139 8/8/8 7/7/7
f 9/9/9 140/140/140 141/141/141
f 140/140/140 9/9/9 8/8/8
f 10/10/10 141/141/141 142/142/142
f 141/141/141 10/10/10 9/9/9
f 11/11/11 142/142/142 143/143/143
f 142/142/142 11/11/11 10/10/10
f 12/12/12 143/143/143 144/144/144
f 143/143/143 12/12/12 11/11/11
f 1/1/1 144/144/144 133/133/133
f 144/144/144 1/1/1 12/12/12
